<svg xmlns="http://www.w3.org/2000/svg"
     width="100%" height="100%" viewBox="0 0 24 24"
     fill="none">
  <path d="M22,8.83c0-1.43-.51-2.79-1.43-3.87.4-1.27.33-2.62-.2-3.85-.06-.14-.17-.24-.32-.28-.14-.04-1.43-.35-4.14,1.42-2.24-.57-4.59-.57-6.82,0C6.38.49,5.09.79,4.95.83c-.14.04-.26.15-.32.28-.53,1.23-.59,2.58-.2,3.85-.93,1.09-1.44,2.46-1.43,3.9,0,5.4,3.23,6.87,6.03,7.37-.39.66-.58,1.42-.53,2.17-2.47.68-3.2-.21-4.1-1.36-.54-.68-1.15-1.46-2.15-1.71-.54-.13-1.08.19-1.21.73-.13.54.19,1.08.73,1.21.34.09.68.51,1.07,1.01.77.98,1.86,2.36,4.17,2.36.45,0,.95-.06,1.51-.18v1.84c0,.28.22.5.5.5h7c.28,0,.5-.22.5-.5v-3.83c.06-.8-.13-1.59-.53-2.27,2.8-.47,6.03-1.92,6.03-7.38Z"
        fill="currentColor" stroke="none"/>
</svg>
