<svg xmlns="http://www.w3.org/2000/svg"
     width="100%" height="100%" viewBox="0 0 24 24"
     fill="none">
  <path d="M15.5,7.5c-3.58,0-6.5,2.92-6.5,6.5v7c0,.28.22.5.5.5h4c.28,0,.5-.22.5-.5v-7c0-.83.67-1.5,1.5-1.5s1.5.67,1.5,1.5v7c0,.28.22.5.5.5h4c.28,0,.5-.22.5-.5v-7c0-3.58-2.92-6.5-6.5-6.5Z"
        fill="currentColor" stroke="none"/>
  <rect x="2" y="8.5" width="5" height="13" rx=".5" ry=".5"
        fill="currentColor" stroke="none"/>
  <circle cx="4.5" cy="4" r="2.5"
          fill="currentColor" stroke="none"/>
</svg>
