<svg xmlns="http://www.w3.org/2000/svg"
     width="100%" height="100%" viewBox="0 0 100 70"
     fill="none">
  <path d="M11.98,50.84h9.5c3.5,0,6.34-2.84,6.34-6.34,0,0,0-19.01,0-19.01,0-14,11.35-25.34,25.34-25.34h9.5c5.25,0,9.5,4.26,9.5,9.5s-4.26,9.5-9.5,9.5h-9.5c-3.5,0-6.34,2.84-6.34,6.34,0,0,0,19.01,0,19.01,0,14-11.35,25.34-25.34,25.34h-9.5c-5.25,0-9.5-4.26-9.5-9.5s4.26-9.5,9.5-9.5Z"
        fill="currentColor" stroke="none"/>
  <circle cx="62.67" cy="35" r="9.5"
          fill="currentColor" stroke="none"/>
  <path d="M97.52,35v9.5c0,14-11.35,25.34-25.34,25.34h-9.5c-5.25,0-9.5-4.26-9.5-9.5s4.23-9.48,9.45-9.5h9.56c3.5,0,6.34-2.84,6.34-6.34v-9.5c0-5.25,4.25-9.5,9.5-9.5s9.5,4.25,9.5,9.5Z"
        fill="currentColor" stroke="none"/>
  <circle cx="88.02" cy="9.66" r="9.5"
          fill="currentColor" stroke="none"/>
</svg>
